<?xml version="1.0" standalone="no"?>
<!DOCTYPE svg PUBLIC "-//W3C//DTD SVG 20010904//EN"
 "http://www.w3.org/TR/2001/REC-SVG-20010904/DTD/svg10.dtd">
<svg version="1.0" xmlns="http://www.w3.org/2000/svg"
 width="721.000000pt" height="162.000000pt" viewBox="0 0 721.000000 162.000000"
 preserveAspectRatio="xMidYMid meet">

<g transform="translate(0.000000,162.000000) scale(0.100000,-0.100000)"
fill="#000000" stroke="none">
<path d="M380 830 l0 -610 107 0 106 0 -5 378 c-3 207 -4 371 -1 364 3 -7 35
-142 72 -300 l67 -287 71 -3 c62 -2 72 0 76 15 3 10 33 140 67 288 34 149 65
275 69 282 3 6 5 -157 3 -363 l-3 -374 101 0 100 0 0 610 0 610 -129 0 -129 0
-21 -77 c-16 -63 -61 -245 -128 -523 -5 -21 -7 -19 -15 20 -5 25 -38 165 -74
313 l-66 267 -134 0 -134 0 0 -610z"/>
<path d="M4130 830 l0 -610 100 0 100 0 -2 375 c-2 205 0 371 3 367 3 -4 25
-90 48 -192 24 -102 54 -233 68 -293 l25 -107 72 0 72 0 58 257 c33 142 65
278 72 303 10 37 11 -25 6 -332 l-5 -378 106 0 107 0 0 610 0 611 -132 -3
-133 -3 -52 -205 c-29 -113 -63 -252 -76 -310 l-24 -105 -13 60 c-6 33 -40
173 -74 310 l-62 250 -132 3 -132 3 0 -611z"/>
</g>
</svg>
